<svg width="25" height="25" viewBox="0 0 25 25" fill="none" xmlns="http://www.w3.org/2000/svg">
<path d="M13.0952 11.6071H21.0889C21.4939 11.1939 22.0185 10.8984 22.6067 10.7764C22.3283 4.77783 17.3769 0 11.3095 0C5.06345 0 0 5.06345 0 11.3095C0 17.3559 4.7449 22.2941 10.7143 22.6037V20.8333L10.7143 20.815C5.73174 20.5078 1.78571 16.3695 1.78571 11.3095C1.78571 6.14924 5.88976 1.94751 11.0119 1.79028V9.52381C11.0119 10.6744 11.9446 11.6071 13.0952 11.6071ZM13.0952 9.82143C12.9309 9.82143 12.7976 9.68818 12.7976 9.52381V1.90129C16.8658 2.53962 20.0794 5.75327 20.7178 9.82143H13.0952ZM23.2143 11.9048C22.2281 11.9048 21.4286 12.7043 21.4286 13.6905V23.2143C21.4286 24.2005 22.2281 25 23.2143 25C24.2005 25 25 24.2005 25 23.2143V13.6905C25 12.7043 24.2005 11.9048 23.2143 11.9048ZM13.6905 19.0476C12.7043 19.0476 11.9048 19.8471 11.9048 20.8333V23.2143C11.9048 24.2005 12.7043 25 13.6905 25C14.6767 25 15.4762 24.2005 15.4762 23.2143V20.8333C15.4762 19.8471 14.6767 19.0476 13.6905 19.0476ZM16.6667 17.2619C16.6667 16.2757 17.4662 15.4762 18.4524 15.4762C19.4386 15.4762 20.2381 16.2757 20.2381 17.2619V23.2143C20.2381 24.2005 19.4386 25 18.4524 25C17.4662 25 16.6667 24.2005 16.6667 23.2143V17.2619Z" fill="#98A2B3"/>
</svg>
