<svg width="25" height="25" viewBox="0 0 25 25" fill="none" xmlns="http://www.w3.org/2000/svg">
<path d="M20.2381 13.6885C20.2381 12.8773 20.5626 12.1418 21.0889 11.6049H13.0952C11.9446 11.6049 11.0119 10.6721 11.0119 9.5213V0C4.90339 0.157823 0 5.15984 0 11.3073C0 17.3545 4.7449 22.2934 10.7143 22.603V20.8324C10.7143 19.1885 12.0468 17.8558 13.6905 17.8558C14.3605 17.8558 14.9788 18.0772 15.4762 18.4509V17.2605C15.4762 15.6165 16.8087 14.2839 18.4524 14.2839C19.1224 14.2839 19.7407 14.5053 20.2381 14.879V13.6885ZM12.7976 0.0932003V9.5213C12.7976 9.68569 12.9309 9.81896 13.0952 9.81896H22.522C21.8575 4.76241 17.8535 0.757812 12.7976 0.0932003ZM23.2143 11.9029C22.2281 11.9029 21.4286 12.7025 21.4286 13.6889V23.214C21.4286 24.2004 22.2281 25 23.2143 25C24.2005 25 25 24.2004 25 23.214V13.6889C25 12.7025 24.2005 11.9029 23.2143 11.9029ZM13.6905 19.0468C12.7043 19.0468 11.9048 19.8464 11.9048 20.8328V23.214C11.9048 24.2004 12.7043 25 13.6905 25C14.6767 25 15.4762 24.2004 15.4762 23.214V20.8328C15.4762 19.8464 14.6767 19.0468 13.6905 19.0468ZM16.6667 17.2608C16.6667 16.2745 17.4662 15.4749 18.4524 15.4749C19.4386 15.4749 20.2381 16.2745 20.2381 17.2608V23.214C20.2381 24.2004 19.4386 25 18.4524 25C17.4662 25 16.6667 24.2004 16.6667 23.214V17.2608Z" fill="#456EFE"/>
</svg>
