<svg width="17" height="15" viewBox="0 0 17 15" fill="none" xmlns="http://www.w3.org/2000/svg">
<path d="M7.73171 14.7949C8.03264 15.0795 8.50733 15.0663 8.79196 14.7654C9.07658 14.4644 9.06336 13.9897 8.76243 13.7051L3.52339 8.75001H16.2471C16.6613 8.75001 16.9971 8.41423 16.9971 8.00001C16.9971 7.5858 16.6613 7.25001 16.2471 7.25001H3.52112L8.76243 2.29275C9.06336 2.00813 9.07658 1.53344 8.79196 1.23251C8.50733 0.931572 8.03264 0.918351 7.73171 1.20298L1.31449 7.27242C1.14819 7.4297 1.04819 7.62981 1.01448 7.8386C1.00308 7.89059 0.99707 7.9446 0.99707 8.00001C0.99707 8.0576 1.00356 8.11368 1.01585 8.16755C1.05084 8.37335 1.15039 8.57025 1.31449 8.72546L7.73171 14.7949Z" fill="#344054"/>
</svg>
