<svg width="24" height="24" viewBox="0 0 24 24" fill="none" xmlns="http://www.w3.org/2000/svg">
<path d="M12 0C13.4441 0 14.8287 0.255099 16.1111 0.722694L14.6788 2.15501C13.8252 1.92328 12.927 1.79962 12 1.79962C6.36649 1.79962 1.79962 6.36649 1.79962 12C1.79962 17.6335 6.36649 22.2004 12 22.2004C17.6335 22.2004 22.2004 17.6335 22.2004 12C22.2004 11.0742 22.0771 10.1773 21.8459 9.32466L23.2785 7.89216C23.7453 9.17363 24 10.5571 24 12C24 18.6274 18.6274 24 12 24C5.37258 24 0 18.6274 0 12C0 5.37258 5.37258 0 12 0ZM12 4.80152C12.6222 4.80152 13.226 4.88046 13.8018 5.02888L13.8019 6.90916C13.2384 6.70969 12.6318 6.60114 12 6.60114C9.01826 6.60114 6.6011 9.0183 6.6011 12C6.6011 14.9817 9.01826 17.3989 12 17.3989C14.9817 17.3989 17.3988 14.9817 17.3988 12C17.3988 11.369 17.2906 10.7633 17.0916 10.2004L18.9717 10.2004C19.1197 10.7756 19.1985 11.3786 19.1985 12C19.1985 15.9756 15.9756 19.1985 12 19.1985C8.02435 19.1985 4.80148 15.9756 4.80148 12C4.80148 8.02439 8.02435 4.80152 12 4.80152ZM14.3995 12C14.3995 13.3252 13.3252 14.3995 12 14.3995C10.6748 14.3995 9.60047 13.3252 9.60047 12C9.60047 10.6748 10.6748 9.60051 12 9.60051C12.3331 9.60051 12.6503 9.66838 12.9386 9.79105L15.0017 7.72799L15.0015 3.90175C15.0015 3.66311 15.0963 3.43423 15.2651 3.26547L18.2644 0.266026C18.5217 0.00867309 18.9087 -0.068319 19.245 0.0709521C19.5812 0.210223 19.8005 0.53833 19.8005 0.902273V4.20161L23.1 4.20167C23.4639 4.20167 23.792 4.42091 23.9313 4.75715C24.0706 5.09338 23.9936 5.48041 23.7362 5.73775L20.7368 8.73711C20.568 8.90585 20.3392 9.00065 20.1005 9.00065L16.2741 9.00066L14.2102 11.0645C14.3321 11.352 14.3995 11.6681 14.3995 12ZM19.7278 7.20103L20.9276 6.00125L18.9006 6.00121C18.4037 6.0012 18.0008 5.59835 18.0008 5.1014V3.07468L16.8012 4.27441L16.8013 7.13029C16.8136 7.14134 16.8257 7.15279 16.8375 7.16464C16.8494 7.17653 16.8609 7.18866 16.872 7.20103L19.7278 7.20103Z" fill="#98A2B3"/>
</svg>
