<svg width="24" height="24" viewBox="0 0 24 24" fill="none" xmlns="http://www.w3.org/2000/svg">
<path d="M23.7364 5.7365C23.9938 5.47911 24.0708 5.092 23.9315 4.7557C23.7922 4.41939 23.464 4.20011 23.1 4.2001L19.7998 4.20004V0.900024C19.7998 0.536005 19.5805 0.20783 19.2442 0.0685303C18.9079 -0.0707696 18.5208 0.00623844 18.2634 0.263645L15.2635 3.26371C15.0947 3.4325 14.9999 3.66143 14.9999 3.90013L15 7.3029L12.6216 9.68134C12.4233 9.62832 12.2149 9.60004 11.9999 9.60004C10.6744 9.60004 9.59993 10.6746 9.59993 12C9.59993 13.3255 10.6744 14.4 11.9999 14.4C13.3254 14.4 14.3999 13.3255 14.3999 12C14.3999 11.7851 14.3716 11.5767 14.3186 11.3784L16.6969 9.00008L20.0999 9.00008C20.3386 9.00008 20.5675 8.90526 20.7363 8.73648L23.7364 5.7365ZM11.9999 7.32371e-05C13.443 7.32371e-05 14.8266 0.254815 16.1082 0.721783L14.4149 2.41518C14.3397 2.49039 14.2708 2.57072 14.2085 2.65536C13.4994 2.4884 12.76 2.40007 11.9999 2.40007C6.69802 2.40007 2.39998 6.69812 2.39998 12C2.39998 17.302 6.69802 21.6 11.9999 21.6C17.3018 21.6 21.5998 17.302 21.5998 12C21.5998 11.24 21.5115 10.5006 21.3446 9.79146C21.4292 9.72916 21.5096 9.66022 21.5848 9.58499L23.2781 7.89172C23.7451 9.17332 23.9998 10.5569 23.9998 12C23.9998 18.6274 18.6273 24 11.9999 24C5.37254 24 0 18.6274 0 12C0 5.37264 5.37254 7.32371e-05 11.9999 7.32371e-05ZM11.9999 4.80006C12.6215 4.80006 13.2246 4.87882 13.7999 5.0269L13.8 6.80584L13.3028 7.30299C13.2831 7.32276 13.2637 7.34279 13.2448 7.36306C12.8478 7.25674 12.4305 7.20005 11.9999 7.20005C9.34896 7.20005 7.19995 9.34908 7.19995 12C7.19995 14.651 9.34896 16.8 11.9999 16.8C14.6509 16.8 16.7999 14.651 16.7999 12C16.7999 11.5695 16.7432 11.1522 16.6369 10.7551C16.6571 10.7362 16.6772 10.7169 16.6969 10.6971L17.194 10.2L18.973 10.2C19.1211 10.7754 19.1999 11.3785 19.1999 12C19.1999 15.9765 15.9763 19.2 11.9999 19.2C8.02349 19.2 4.79996 15.9765 4.79996 12C4.79996 8.0236 8.02349 4.80006 11.9999 4.80006Z" fill="#456EFE"/>
</svg>
