<svg width="10" height="10" viewBox="0 0 10 10" fill="none" xmlns="http://www.w3.org/2000/svg">
<path d="M5 0C7.76142 0 10 2.23858 10 5C10 7.76142 7.76142 10 5 10C2.23858 10 0 7.76142 0 5C0 2.23858 2.23858 0 5 0ZM5 1C2.79086 1 1 2.79086 1 5C1 7.20914 2.79086 9 5 9C7.20914 9 9 7.20914 9 5C9 2.79086 7.20914 1 5 1ZM4.5 2.5C4.74546 2.5 4.94961 2.67688 4.99194 2.91012L5 3V5H6.5C6.77614 5 7 5.22386 7 5.5C7 5.74546 6.82312 5.94961 6.58988 5.99194L6.5 6H4.5C4.25454 6 4.05039 5.82312 4.00806 5.58988L4 5.5V3C4 2.72386 4.22386 2.5 4.5 2.5Z" fill="#667085"/>
</svg>
