<svg width="22" height="18" viewBox="0 0 22 18" fill="none" xmlns="http://www.w3.org/2000/svg">
<path d="M4 14.75V10.9843L8.06017 13.6369C9.84634 14.8039 12.1537 14.8039 13.9398 13.6369L18 10.9843V14.75C18 14.9123 17.9474 15.0702 17.85 15.2L17.8489 15.2014L17.8477 15.2031L17.8446 15.2071L17.8364 15.2178L17.8243 15.2331L17.8111 15.2496C17.7904 15.2752 17.7619 15.3095 17.7253 15.3513C17.6522 15.4348 17.5469 15.5484 17.4081 15.6817C17.1305 15.9481 16.7176 16.2948 16.1587 16.6387C15.0359 17.3297 13.3387 18 11 18C8.66127 18 6.96408 17.3297 5.8413 16.6387C5.2824 16.2948 4.86951 15.9481 4.59193 15.6817C4.45308 15.5484 4.34778 15.4348 4.27468 15.3513C4.23812 15.3095 4.20956 15.2752 4.18885 15.2496C4.1785 15.2367 4.17009 15.2261 4.16363 15.2178L4.15537 15.2071L4.15233 15.2031L4.15107 15.2014C4.05371 15.0716 4 14.9123 4 14.75ZM21.1602 7.1279L13.1194 12.3812C11.8317 13.2225 10.1683 13.2225 8.88058 12.3812L2 7.88589L2 13.25C2 13.6642 1.66421 14 1.25 14C0.835786 14 0.5 13.6642 0.5 13.25V7C0.5 6.91223 0.515075 6.82799 0.542778 6.74971C0.51448 6.66959 0.499629 6.58417 0.500007 6.49677C0.50111 6.24238 0.631085 6.0059 0.845249 5.86861L8.90878 0.69964C10.1832 -0.117327 11.8168 -0.117329 13.0912 0.699639L21.1548 5.86861C21.3689 6.0059 21.4989 6.24238 21.5 6.49677C21.501 6.71936 21.4031 6.9291 21.236 7.07126C21.2121 7.09157 21.1868 7.11051 21.1602 7.1279Z" fill="white"/>
</svg>
