<svg width="18" height="21" viewBox="0 0 18 21" fill="none" xmlns="http://www.w3.org/2000/svg">
<path d="M2.47146 1.41991C2.38955 2.80599 2.8618 4.22147 3.88864 5.30233C2.01112 5.84196 0.517953 7.4397 0.22815 9.51829C-0.10026 11.8738 0.383872 14.2709 1.60072 16.3143L1.95173 16.9037C1.96474 16.9256 1.97885 16.9467 1.994 16.9671L3.40996 18.8739C4.68641 20.5927 7.20132 20.7527 8.68526 19.2094C8.85704 19.0307 9.14291 19.0307 9.31469 19.2094C10.7986 20.7527 13.3135 20.5927 14.59 18.8739L16.0059 16.9671C16.0211 16.9467 16.0352 16.9256 16.0482 16.9037L16.3992 16.3143C17.6161 14.2709 18.1002 11.8738 17.7718 9.51829C17.3631 6.58692 14.5611 4.61187 11.6629 5.21234L9.76077 5.60644L9.75769 5.60707C9.78807 4.82723 9.90973 3.98619 10.149 3.26841C10.4383 2.40046 10.8411 1.87868 11.2884 1.6923C11.6708 1.53299 11.8516 1.09388 11.6923 0.711532C11.533 0.329181 11.0939 0.148373 10.7115 0.307686C9.65882 0.746308 9.06164 1.78703 8.72596 2.79407C8.71029 2.8411 8.69505 2.88843 8.68025 2.93602C8.44046 2.47158 8.12593 2.03572 7.73665 1.64644C6.64409 0.553877 5.18457 0.0501492 3.75636 0.134788C3.06327 0.175861 2.51241 0.726818 2.47146 1.41991ZM5.39688 9.23511C5.05015 9.30445 4.73237 9.54849 4.53295 10.0138C4.32974 10.488 4.25804 11.1902 4.47731 12.0679C4.57771 12.4698 4.33331 12.8769 3.93145 12.9773C3.52959 13.0777 3.12243 12.8333 3.02204 12.4314C2.74168 11.3092 2.79499 10.2613 3.15421 9.42301C3.51724 8.57585 4.19934 7.94489 5.10274 7.76423C5.50891 7.68301 5.90402 7.94643 5.98525 8.3526C6.06647 8.75877 5.80305 9.15388 5.39688 9.23511Z" fill="white"/>
</svg>
