<svg width="20" height="20" viewBox="0 0 20 20" fill="none" xmlns="http://www.w3.org/2000/svg">
<path d="M1.00002 0.499878C0.447734 0.499878 1.90139e-05 0.947591 1.72853e-05 1.49987L0 6.99996C0 8.74117 0.614413 10.2563 1.71064 11.337C2.5831 12.1971 3.72091 12.7429 5 12.9287V13.75C5 17.2018 7.79822 20 11.25 20C14.7018 20 17.5 17.2018 17.5 13.75V13.0933C18.8056 12.6715 19.75 11.446 19.75 10C19.75 8.20507 18.2949 6.75 16.5 6.75C14.7051 6.75 13.25 8.20507 13.25 10C13.25 11.446 14.1944 12.6715 15.5 13.0933V13.75C15.5 16.0972 13.5972 18 11.25 18C8.90279 18 7 16.0972 7 13.75V12.9287C8.27909 12.7429 9.4169 12.1971 10.2894 11.337C11.3856 10.2563 12 8.74117 12 6.99997V1.49988C12 0.947593 11.5523 0.499878 11 0.499878H9.00231C8.45002 0.499878 8.00231 0.947593 8.00231 1.49988C8.00231 2.05216 8.45002 2.49988 9.00231 2.49988H10V6.99997C10 8.25867 9.56416 9.24348 8.88527 9.91276C8.2042 10.5842 7.21555 10.9999 6 10.9999C4.78445 10.9999 3.7958 10.5842 3.11473 9.91276C2.43584 9.24348 2 8.25867 2 6.99997L2.00001 2.49988H3.00002C3.5523 2.49988 4.00002 2.05216 4.00002 1.49988C4.00002 0.947593 3.5523 0.499878 3.00002 0.499878H1.00002ZM16.5 8.75C17.1904 8.75 17.75 9.30964 17.75 10C17.75 10.6904 17.1904 11.25 16.5 11.25C15.8096 11.25 15.25 10.6904 15.25 10C15.25 9.30964 15.8096 8.75 16.5 8.75Z" fill="white"/>
</svg>
