<svg width="24" height="24" viewBox="0 0 24 24" fill="none" xmlns="http://www.w3.org/2000/svg">
<path d="M4.29327 17.7117L8.29327 21.7075L8.38752 21.7906C8.77997 22.0954 9.34719 22.0674 9.70748 21.7067L9.79062 21.6125C10.0954 21.22 10.0674 20.6528 9.70673 20.2925L7.41 17.999L19.0007 17.999L19.1173 17.9923C19.6146 17.9345 20.0007 17.5118 20.0007 16.999L19.9939 16.8824C19.9362 16.385 19.5135 15.999 19.0007 15.999L7.417 15.999L9.70757 13.7056L9.7907 13.6114C10.0955 13.2189 10.0674 12.6517 9.70664 12.2914C9.31586 11.9012 8.6827 11.9016 8.29243 12.2923L4.29243 16.2976L4.20931 16.3918C3.90456 16.7843 3.93262 17.3514 4.29327 17.7117ZM4.00317 7L4.0099 7.11662C4.06767 7.61396 4.49034 8 5.00317 8L16.583 8.00001L14.2925 10.2932L14.2094 10.3875C13.9045 10.7799 13.9325 11.3471 14.2932 11.7074C14.6839 12.0978 15.3171 12.0975 15.7074 11.7068L19.7074 7.70301L19.7905 7.60877C20.0954 7.21633 20.0674 6.64911 19.7067 6.2888L15.7067 2.29256L15.6125 2.20942C15.22 1.90458 14.6528 1.93257 14.2925 2.29323L14.2094 2.38747C13.9045 2.77991 13.9325 3.34712 14.2932 3.70744L16.587 6.00001L5.00317 6L4.88655 6.00673C4.38921 6.06449 4.00317 6.48716 4.00317 7Z" fill="#212121"/>
</svg>
