<svg width="24" height="26" viewBox="0 0 24 26" fill="none" xmlns="http://www.w3.org/2000/svg">
<path d="M13.9429 0.745121C12.8227 -0.248372 11.1773 -0.248375 10.0571 0.74512L1.05706 8.72653C0.38647 9.32123 0 10.1932 0 11.1114V23.5923C0 24.922 1.03319 26 2.30769 26H6.92308C8.19758 26 9.23077 24.922 9.23077 23.5923V16.8508C9.23077 16.5849 9.43741 16.3693 9.69231 16.3693H13.8462C14.1011 16.3693 14.3077 16.5849 14.3077 16.8508V23.5923C14.3077 24.922 15.3409 26 16.6154 26H21.6923C22.9668 26 24 24.922 24 23.5923V11.1114C24 10.1932 23.6135 9.32123 22.9429 8.72654L13.9429 0.745121Z" fill="#456EFE"/>
</svg>
