<svg width="24" height="26" viewBox="0 0 24 26" fill="none" xmlns="http://www.w3.org/2000/svg">
<path d="M10.3103 0.585119C11.2975 -0.195039 12.7025 -0.195041 13.6897 0.585119L22.9897 7.93448C23.6284 8.4392 24 9.20212 24 10.0086V23.3408C24 24.8094 22.7912 26 21.3 26H17.7C16.2088 26 15 24.8094 15 23.3408V16.2494C15 15.7599 14.5971 15.363 14.1 15.363H9.9C9.40295 15.363 9 15.7599 9 16.2494V23.3408C9 24.8094 7.79117 26 6.3 26H2.7C1.20883 26 0 24.8094 0 23.3408V10.0086C0 9.20212 0.371609 8.4392 1.01029 7.93448L10.3103 0.585119ZM12.5632 1.96787C12.2342 1.70782 11.7658 1.70782 11.4368 1.96787L2.13676 9.31724C1.92387 9.48548 1.8 9.73978 1.8 10.0086V23.3408C1.8 23.8303 2.20294 24.2272 2.7 24.2272H6.3C6.79706 24.2272 7.2 23.8303 7.2 23.3408V16.2494C7.2 14.7808 8.40883 13.5902 9.9 13.5902H14.1C15.5912 13.5902 16.8 14.7808 16.8 16.2494V23.3408C16.8 23.8303 17.2029 24.2272 17.7 24.2272H21.3C21.7971 24.2272 22.2 23.8303 22.2 23.3408V10.0086C22.2 9.73978 22.0761 9.48548 21.8632 9.31724L12.5632 1.96787Z" fill="#98A2B3"/>
</svg>
