<svg width="24" height="24" viewBox="0 0 24 24" fill="none" xmlns="http://www.w3.org/2000/svg">
<path d="M12.0007 2.00073C17.5236 2.00073 22.0007 6.47788 22.0007 12.0007C22.0007 17.5236 17.5236 22.0007 12.0007 22.0007C6.47788 22.0007 2.00073 17.5236 2.00073 12.0007C2.00073 6.47788 6.47788 2.00073 12.0007 2.00073ZM12.7811 7.4697L12.6969 7.39708C12.436 7.20343 12.0777 7.20104 11.8144 7.38991L11.7204 7.4697L11.6478 7.55382C11.4541 7.81481 11.4517 8.17302 11.6406 8.43641L11.7204 8.53036L14.44 11.25H7.75003L7.64826 11.2569C7.31546 11.302 7.05202 11.5655 7.00688 11.8983L7.00003 12L7.00688 12.1018C7.05202 12.4346 7.31546 12.698 7.64826 12.7432L7.75003 12.75H14.44L11.7198 15.4704L11.6472 15.5545C11.4293 15.8481 11.4534 16.2648 11.7196 16.5311C11.9858 16.7974 12.4025 16.8217 12.6961 16.6039L12.7803 16.5313L16.7818 12.5313L16.8544 12.4472C17.0481 12.1862 17.0506 11.8279 16.8617 11.5645L16.7819 11.4705L12.7811 7.4697L12.6969 7.39708L12.7811 7.4697Z" fill="#667085"/>
</svg>
