<svg width="16" height="20" viewBox="0 0 16 20" fill="none" xmlns="http://www.w3.org/2000/svg">
<path d="M7.25 4.74976C7.25 4.33554 7.58579 3.99976 8 3.99976C8.41421 3.99976 8.75 4.33554 8.75 4.74976V6.24979C8.75 6.664 8.41421 6.99979 8 6.99979C7.58579 6.99979 7.25 6.664 7.25 6.24979V4.74976ZM12.2803 6.21509C11.9874 5.9222 11.5126 5.9222 11.2197 6.21509L10.159 7.27577C9.8661 7.56867 9.8661 8.04354 10.159 8.33643C10.4519 8.62933 10.9268 8.62933 11.2197 8.33643L12.2803 7.27575C12.5732 6.98286 12.5732 6.50799 12.2803 6.21509ZM4.78032 6.21509C4.48743 5.9222 4.01255 5.9222 3.71966 6.21509C3.42677 6.50799 3.42677 6.98286 3.71966 7.27575L4.78034 8.33643C5.07324 8.62933 5.54811 8.62933 5.841 8.33643C6.1339 8.04354 6.1339 7.56867 5.841 7.27577L4.78032 6.21509ZM8 0C12.0041 0 15.25 3.24593 15.25 7.25C15.25 9.34606 14.3493 11.2697 12.5869 12.9919C12.51 13.0671 12.4504 13.1577 12.4118 13.2572L12.3804 13.3595L11.2493 18.2551C11.0266 19.219 10.2035 19.9174 9.23025 19.992L9.05704 19.9986H6.94326C5.95374 19.9986 5.08791 19.3536 4.79629 18.4219L4.75088 18.2545L3.62132 13.3598C3.58904 13.2199 3.51728 13.0922 3.41456 12.9919C1.73515 11.3516 0.837782 9.52875 0.756126 7.54825L0.75 7.25L0.753875 7.01069C0.880141 3.11739 4.07601 0 8 0ZM10.115 16.498H5.884L6.21247 17.9172C6.28314 18.2235 6.53566 18.4494 6.84005 18.4915L6.94326 18.4986H9.05704C9.37129 18.4986 9.64813 18.3034 9.75765 18.0164L9.78779 17.9174L10.115 16.498ZM8 1.5C4.89821 1.5 2.37006 3.95601 2.25415 7.02944L2.25 7.25L2.25672 7.52701C2.33286 9.09037 3.05722 10.5461 4.46262 11.9187C4.72675 12.1767 4.92265 12.495 5.03422 12.845L5.08291 13.0225L5.538 14.998H7.25V8.7493C7.25 8.33508 7.58579 7.9993 8 7.9993C8.41421 7.9993 8.75 8.33508 8.75 8.7493V14.998H10.461L10.9189 13.0218C11.0019 12.6625 11.1718 12.33 11.4124 12.0529L11.5386 11.9191C12.9432 10.5465 13.6672 9.09064 13.7433 7.52705L13.75 7.25L13.7458 7.02944C13.6299 3.95602 11.1018 1.5 8 1.5Z" fill="white"/>
</svg>
