<svg width="21" height="20" viewBox="0 0 21 20" fill="none" xmlns="http://www.w3.org/2000/svg">
<path d="M4.24788 14.0021C5.21437 14.0021 5.99788 14.7856 5.99788 15.7521V18.25C5.99788 19.2165 5.21437 20 4.24788 20H1.75C0.783502 20 0 19.2165 0 18.25V15.7521C0 14.7856 0.783502 14.0021 1.75 14.0021H4.24788ZM4.24788 15.5021H1.75C1.61193 15.5021 1.5 15.6141 1.5 15.7521V18.25C1.5 18.3881 1.61193 18.5 1.75 18.5H4.24788C4.38595 18.5 4.49788 18.3881 4.49788 18.25V15.7521C4.49788 15.6141 4.38595 15.5021 4.24788 15.5021ZM7.74809 16H19.2529C19.6671 16 20.0029 16.3358 20.0029 16.75C20.0029 17.1297 19.7207 17.4435 19.3547 17.4932L19.2529 17.5H7.74809C7.33388 17.5 6.99809 17.1642 6.99809 16.75C6.99809 16.3703 7.28025 16.0565 7.64632 16.0068L7.74809 16H19.2529H7.74809ZM4.24788 7.00106C5.21437 7.00106 5.99788 7.78456 5.99788 8.75106V11.2489C5.99788 12.2154 5.21437 12.9989 4.24788 12.9989H1.75C0.783502 12.9989 0 12.2154 0 11.2489V8.75106C0 7.78456 0.783502 7.00106 1.75 7.00106H4.24788ZM4.24788 8.50106H1.75C1.61193 8.50106 1.5 8.61299 1.5 8.75106V11.2489C1.5 11.387 1.61193 11.4989 1.75 11.4989H4.24788C4.38595 11.4989 4.49788 11.387 4.49788 11.2489V8.75106C4.49788 8.61299 4.38595 8.50106 4.24788 8.50106ZM7.74809 9H19.2529C19.6671 9 20.0029 9.33579 20.0029 9.75C20.0029 10.1297 19.7207 10.4435 19.3547 10.4932L19.2529 10.5H7.74809C7.33388 10.5 6.99809 10.1642 6.99809 9.75C6.99809 9.3703 7.28025 9.05651 7.64632 9.00685L7.74809 9H19.2529H7.74809ZM4.24788 0C5.21437 0 5.99788 0.783502 5.99788 1.75V4.24788C5.99788 5.21437 5.21437 5.99788 4.24788 5.99788H1.75C0.783502 5.99788 0 5.21437 0 4.24788V1.75C0 0.783502 0.783502 0 1.75 0H4.24788ZM4.24788 1.5H1.75C1.61193 1.5 1.5 1.61193 1.5 1.75V4.24788C1.5 4.38595 1.61193 4.49788 1.75 4.49788H4.24788C4.38595 4.49788 4.49788 4.38595 4.49788 4.24788V1.75C4.49788 1.61193 4.38595 1.5 4.24788 1.5ZM7.74809 2H19.2529C19.6671 2 20.0029 2.33579 20.0029 2.75C20.0029 3.1297 19.7207 3.44349 19.3547 3.49315L19.2529 3.5H7.74809C7.33388 3.5 6.99809 3.16421 6.99809 2.75C6.99809 2.3703 7.28025 2.05651 7.64632 2.00685L7.74809 2H19.2529H7.74809Z" fill="white"/>
</svg>
