<svg width="24" height="24" viewBox="0 0 24 24" fill="none" xmlns="http://www.w3.org/2000/svg">
<path d="M10.4298 19.9244L13.9923 18.4123C14.1256 19.2925 13.6544 20.185 12.797 20.5489C11.9397 20.9128 10.9704 20.6318 10.4298 19.9244ZM15.8625 2.09392C17.9482 3.23347 19.514 4.69659 20.5442 6.48101C21.5745 8.26543 22.0587 10.353 22.0027 12.7291C21.9929 13.1432 21.6493 13.4709 21.2352 13.4612C20.8211 13.4514 20.4934 13.1078 20.5031 12.6937C20.5529 10.5824 20.1316 8.76635 19.2452 7.23101C18.3588 5.69566 16.9967 4.42285 15.1433 3.41027C14.7798 3.21167 14.6461 2.756 14.8447 2.3925C15.0433 2.029 15.499 1.89532 15.8625 2.09392ZM6.71266 6.51547C9.57441 5.24134 12.9168 6.4461 14.3122 9.26099L14.4104 9.47041L15.6978 12.3623L17.3961 13.832C17.4888 13.9123 17.5691 14.0057 17.6622 14.1568L17.7209 14.2711C18.0003 14.9024 17.715 15.6407 17.0837 15.9201L6.7571 20.4902C6.59777 20.5607 6.42546 20.5972 6.25122 20.5972C5.56087 20.5972 5.00122 20.0375 5.00122 19.3475L5.00014 17.0046L3.75776 14.2132C2.44426 11.2631 3.76694 7.82699 6.71266 6.51547ZM5.12812 13.6032L6.49999 16.6855L6.50104 18.9632L16.1161 14.708L14.4634 13.2777L13.0466 10.0946L12.9615 9.91326C11.9301 7.83289 9.44969 6.93882 7.32276 7.88579C5.13327 8.86061 4.15178 11.4103 5.12812 13.6032ZM15.6249 5.69457C16.5919 6.22184 17.3669 6.9892 17.9412 7.98387C18.5155 8.97855 18.7925 10.0334 18.7657 11.1345C18.7556 11.5486 18.4117 11.8761 17.9976 11.866C17.5835 11.8559 17.256 11.512 17.2661 11.0979C17.2862 10.2763 17.0804 9.49294 16.6422 8.73387C16.2039 7.97481 15.6284 7.40494 14.9068 7.01151C14.5432 6.81321 14.4091 6.35765 14.6074 5.99399C14.8057 5.63033 15.2613 5.49627 15.6249 5.69457Z" fill="#242424"/>
</svg>
