<svg width="17" height="20" viewBox="0 0 17 20" fill="none" xmlns="http://www.w3.org/2000/svg">
<path d="M13.7543 11.9999C14.9963 11.9999 16.0032 13.0068 16.0032 14.2488V15.1673C16.0032 15.7406 15.8239 16.2996 15.4906 16.7661C13.9447 18.9294 11.4204 20.0011 8.00012 20.0011C4.57915 20.0011 2.05619 18.9289 0.51403 16.7646C0.182067 16.2987 0.00366211 15.7408 0.00366211 15.1688V14.2488C0.00366211 13.0068 1.01052 11.9999 2.25254 11.9999H13.7543ZM8.00012 0.00462341C10.7615 0.00462341 13.0001 2.2432 13.0001 5.00462C13.0001 7.76605 10.7615 10.0046 8.00012 10.0046C5.2387 10.0046 3.00012 7.76605 3.00012 5.00462C3.00012 2.2432 5.2387 0.00462341 8.00012 0.00462341Z" fill="white"/>
</svg>
