<svg width="23" height="25" viewBox="0 0 23 25" fill="none" xmlns="http://www.w3.org/2000/svg">
<path d="M16.6487 14.2834C17.5929 14.2834 18.4249 14.7561 18.9133 15.474H11.4978C10.8161 15.474 10.1871 15.6956 9.68106 16.0696H2.72285C2.22209 16.0696 1.81614 16.4688 1.81614 16.9613V17.6492C1.81614 18.287 2.04753 18.9039 2.4687 19.389C3.79462 20.916 5.77923 21.7868 8.47088 21.9823V23.2139C8.47088 23.406 8.4894 23.5939 8.52476 23.7759C5.28347 23.575 2.78704 22.5061 1.0876 20.5489C0.385649 19.7405 0 18.7122 0 17.6492V16.9613C0 15.4824 1.21906 14.2834 2.72285 14.2834H16.6487ZM9.68179 0C13.0252 0 15.7356 2.66559 15.7356 5.95377C15.7356 9.24194 13.0252 11.9075 9.68179 11.9075C6.33837 11.9075 3.62799 9.24194 3.62799 5.95377C3.62799 2.66559 6.33837 0 9.68179 0ZM9.68179 1.78613C7.34139 1.78613 5.44413 3.65204 5.44413 5.95377C5.44413 8.25549 7.34139 10.1214 9.68179 10.1214C12.0222 10.1214 13.9194 8.25549 13.9194 5.95377C13.9194 3.65204 12.0222 1.78613 9.68179 1.78613ZM9.68164 18.4509C9.68164 17.4644 10.4948 16.6647 11.4978 16.6647H21.1839C22.1869 16.6647 23 17.4644 23 18.4509V23.2139C23 24.2003 22.1869 25 21.1839 25H11.4978C10.4948 25 9.68164 24.2003 9.68164 23.2139V18.4509ZM21.7892 19.0462C21.1206 19.0462 20.5785 18.5131 20.5785 17.8555H19.3677C19.3677 19.1708 20.4519 20.237 21.7892 20.237V19.0462ZM21.7892 21.4277C20.4519 21.4277 19.3677 22.494 19.3677 23.8092H20.5785C20.5785 23.1516 21.1206 22.6185 21.7892 22.6185V21.4277ZM12.1032 17.8555C12.1032 18.5131 11.5611 19.0462 10.8924 19.0462V20.237C12.2298 20.237 13.3139 19.1708 13.3139 17.8555H12.1032ZM13.3139 23.8092C13.3139 22.494 12.2298 21.4277 10.8924 21.4277V22.6185C11.5611 22.6185 12.1032 23.1516 12.1032 23.8092H13.3139ZM18.4597 20.8324C18.4597 19.6815 17.511 18.7485 16.3408 18.7485C15.1706 18.7485 14.222 19.6815 14.222 20.8324C14.222 21.9832 15.1706 22.9162 16.3408 22.9162C17.511 22.9162 18.4597 21.9832 18.4597 20.8324Z" fill="#98A2B3"/>
</svg>
