<svg width="24" height="24" viewBox="0 0 24 24" fill="none" xmlns="http://www.w3.org/2000/svg">
<path d="M17 2.5C18.934 2.5 20.5018 4.0678 20.5018 6.00177C20.5018 7.93574 18.934 9.50354 17 9.50354C15.97 9.50354 15.0439 9.05887 14.4032 8.35104L9.84455 10.9555C9.94786 11.2859 10.0035 11.6373 10.0035 12.0018C10.0035 12.3662 9.94786 12.7177 9.84455 13.0481L14.4023 15.6535C15.043 14.9451 15.9695 14.5 17 14.5C18.934 14.5 20.5018 16.0678 20.5018 18.0018C20.5018 19.9357 18.934 21.5035 17 21.5035C15.066 21.5035 13.4982 19.9357 13.4982 18.0018C13.4982 17.6373 13.5539 17.2859 13.6572 16.9555L9.09951 14.35C8.45873 15.0584 7.53223 15.5035 6.50177 15.5035C4.5678 15.5035 3 13.9357 3 12.0018C3 10.0678 4.5678 8.5 6.50177 8.5C7.53173 8.5 8.45784 8.94466 9.09859 9.65249L13.6572 7.04807C13.5539 6.71767 13.4982 6.36622 13.4982 6.00177C13.4982 4.0678 15.066 2.5 17 2.5ZM17 16C15.8945 16 14.9982 16.8962 14.9982 18.0018C14.9982 19.1073 15.8945 20.0035 17 20.0035C18.1055 20.0035 19.0018 19.1073 19.0018 18.0018C19.0018 16.8962 18.1055 16 17 16ZM6.50177 10C5.39622 10 4.5 10.8962 4.5 12.0018C4.5 13.1073 5.39622 14.0035 6.50177 14.0035C7.60732 14.0035 8.50354 13.1073 8.50354 12.0018C8.50354 10.8962 7.60732 10 6.50177 10ZM17 4C15.8945 4 14.9982 4.89622 14.9982 6.00177C14.9982 7.10732 15.8945 8.00354 17 8.00354C18.1055 8.00354 19.0018 7.10732 19.0018 6.00177C19.0018 4.89622 18.1055 4 17 4Z" fill="#242424"/>
</svg>
