<svg width="28" height="28" viewBox="0 0 28 28" fill="none" xmlns="http://www.w3.org/2000/svg">
<path d="M10.001 5L9.88467 5.0077C9.4663 5.06355 9.14384 5.41646 9.14384 5.84349L9.14286 20.1176L5.46298 16.4989L5.36681 16.4173C5.03115 16.1724 4.55498 16.1998 4.2508 16.4994C3.9162 16.8289 3.91643 17.363 4.2513 17.6923L9.39846 22.7532L9.49463 22.8348C9.83029 23.0797 10.3065 23.0523 10.6106 22.7527L15.7492 17.6918L15.8322 17.5971C16.081 17.2668 16.0531 16.7982 15.7487 16.4989L15.6525 16.4173C15.3169 16.1724 14.8407 16.1998 14.5365 16.4994L10.8571 20.1221L10.8581 5.84349L10.8503 5.72903C10.7935 5.31733 10.4349 5 10.001 5ZM14 5.56233C13.5266 5.56233 13.1429 5.93997 13.1429 6.40582C13.1429 6.87166 13.5266 7.2493 14 7.2493H23.1429C23.6162 7.2493 24 6.87166 24 6.40582C24 5.93997 23.6162 5.56233 23.1429 5.56233H14ZM13.1429 9.77977C13.1429 9.31393 13.5266 8.93628 14 8.93628H19.7143C20.1877 8.93628 20.5714 9.31393 20.5714 9.77977C20.5714 10.2456 20.1877 10.6233 19.7143 10.6233H14C13.5266 10.6233 13.1429 10.2456 13.1429 9.77977ZM14 12.3102C13.5266 12.3102 13.1429 12.6879 13.1429 13.1537C13.1429 13.6196 13.5266 13.9972 14 13.9972H16.2857C16.7591 13.9972 17.1429 13.6196 17.1429 13.1537C17.1429 12.6879 16.7591 12.3102 16.2857 12.3102H14Z" fill="#242424"/>
</svg>
