<svg width="16" height="20" viewBox="0 0 16 20" fill="none" xmlns="http://www.w3.org/2000/svg">
<path d="M3 5V3C3 1.34315 4.34315 0 6 0C6.76836 0 7.46925 0.288855 8 0.763898C8.53076 0.288855 9.23165 0 10 0C11.6569 0 13 1.34315 13 3V5H14.5C15.3284 5 16 5.67157 16 6.5V16C16 17.4069 15.2737 18.6441 14.1755 19.3572L13.6298 19.2613C12.8554 19.1253 12.0564 18.6983 11.455 18.0889C10.8545 17.4803 10.5 16.7425 10.5 16V5H11.5V3C11.5 2.17157 10.8284 1.5 10 1.5C9.53504 1.5 9.11949 1.71156 8.84435 2.04367C8.9453 2.34403 9 2.66563 9 3V16C9 17.2289 9.58201 18.3263 10.3873 19.1424C10.7087 19.4682 11.0736 19.7576 11.4661 20H4C1.79086 20 0 18.2091 0 16V6.5C0 5.67157 0.671573 5 1.5 5H3ZM4.5 3V5H7.5V3C7.5 2.17157 6.82843 1.5 6 1.5C5.17157 1.5 4.5 2.17157 4.5 3Z" fill="white"/>
</svg>
