<svg width="22" height="16" viewBox="0 0 22 16" fill="none" xmlns="http://www.w3.org/2000/svg">
<path d="M1.40698 13.1232C0.576826 12.7553 0 11.943 0 11V9.38208C0 7.87191 1.04701 6.55041 2.55179 6.16129L5.42937 5.41719L7.55069 1.71452C8.15696 0.656306 9.30722 0 10.5556 0H15.2054C16.685 0 17.9986 0.918098 18.4665 2.27924L19.5977 5.57011C21.0199 6.00496 22 7.28725 22 8.74874V11C22 11.943 21.4232 12.7553 20.593 13.1232C20.3635 14.7482 18.9263 16 17.1875 16C15.5245 16 14.1373 14.8548 13.8188 13.3333H8.18124C7.86274 14.8548 6.47553 16 4.8125 16C3.07375 16 1.63651 14.7482 1.40698 13.1232ZM15.2054 1.33333H13.75V5.33333H18.067L17.1621 2.70088C16.8813 1.88419 16.0932 1.33333 15.2054 1.33333ZM8.75266 2.36205L7.05036 5.33333H12.375V1.33333H10.5556C9.80658 1.33333 9.11642 1.72712 8.75266 2.36205ZM19.25 12.6667C19.25 11.5621 18.3266 10.6667 17.1875 10.6667C16.0484 10.6667 15.125 11.5621 15.125 12.6667C15.125 13.7712 16.0484 14.6667 17.1875 14.6667C18.3266 14.6667 19.25 13.7712 19.25 12.6667ZM6.875 12.6667C6.875 11.5621 5.95159 10.6667 4.8125 10.6667C3.67341 10.6667 2.75 11.5621 2.75 12.6667C2.75 13.7712 3.67341 14.6667 4.8125 14.6667C5.95159 14.6667 6.875 13.7712 6.875 12.6667Z" fill="white"/>
</svg>
